<?xml version="1.0" standalone="no"?>
<!DOCTYPE svg PUBLIC "-//W3C//DTD SVG 20010904//EN"
 "http://www.w3.org/TR/2001/REC-SVG-20010904/DTD/svg10.dtd">
<svg version="1.0" xmlns="http://www.w3.org/2000/svg"
 width="425.000000pt" height="425.000000pt" viewBox="0 0 425.000000 425.000000"
 preserveAspectRatio="xMidYMid meet">
<metadata>
Created by potrace 1.11, written by Peter Selinger 2001-2013
</metadata>
<g transform="translate(0.000000,425.000000) scale(0.100000,-0.100000)"
fill="#000000" stroke="none">
<path d="M1920 4245 c0 -6 -26 -10 -59 -10 -39 0 -57 -3 -51 -10 5 -6 -7 -10
-33 -11 -71 -2 -141 -15 -148 -26 -4 -6 -12 -7 -18 -4 -6 4 -17 4 -23 -1 -7
-4 -17 -8 -23 -10 -34 -7 -55 -13 -92 -26 -22 -9 -44 -13 -47 -10 -3 4 -6 1
-6 -6 0 -7 -4 -9 -10 -6 -5 3 -10 2 -10 -4 0 -6 -6 -8 -14 -5 -8 3 -17 0 -21
-5 -3 -6 -11 -9 -16 -6 -5 4 -9 1 -9 -4 0 -6 -3 -10 -7 -9 -5 1 -25 -6 -47
-15 -21 -9 -42 -17 -47 -17 -5 0 -9 -5 -9 -10 0 -6 -3 -9 -7 -8 -13 4 -133
-55 -133 -64 0 -5 -5 -6 -10 -3 -5 3 -10 1 -10 -4 0 -6 -7 -11 -15 -11 -8 0
-15 -5 -15 -12 0 -6 -3 -9 -6 -6 -5 5 -55 -23 -89 -50 -5 -4 -26 -19 -45 -32
-19 -14 -43 -32 -53 -40 -10 -8 -20 -14 -22 -13 -3 2 -20 -12 -38 -30 -47 -45
-81 -72 -88 -70 -3 1 -12 -8 -19 -20 -6 -12 -31 -38 -55 -57 -24 -19 -44 -40
-44 -45 -1 -6 -14 -21 -30 -35 -17 -13 -28 -27 -25 -32 3 -4 -3 -8 -12 -8 -10
0 -14 -3 -11 -7 4 -3 -2 -13 -13 -20 -11 -8 -18 -19 -15 -24 4 -5 -1 -9 -10
-9 -9 0 -13 -4 -10 -10 3 -5 1 -10 -5 -10 -6 0 -9 -4 -5 -9 3 -5 -4 -12 -15
-16 -11 -3 -20 -13 -20 -21 0 -8 -5 -14 -11 -14 -5 0 -7 -4 -4 -10 3 -5 1 -10
-4 -10 -6 0 -11 -5 -11 -11 0 -6 -6 -17 -12 -24 -31 -34 -36 -43 -31 -49 4 -3
1 -6 -5 -6 -7 0 -12 -7 -12 -15 0 -8 -4 -15 -10 -15 -5 0 -10 -7 -10 -15 0 -8
-5 -15 -11 -15 -5 0 -8 -4 -5 -8 3 -5 -4 -19 -15 -30 -10 -12 -19 -24 -18 -27
0 -3 -16 -40 -36 -83 -61 -129 -79 -172 -77 -184 1 -5 -2 -8 -6 -8 -7 0 -11
-16 -14 -57 -1 -7 -5 -13 -10 -13 -4 0 -8 -7 -8 -16 0 -8 -5 -25 -12 -37 -6
-12 -13 -33 -14 -47 -2 -14 -6 -36 -9 -50 -4 -14 -8 -33 -8 -42 -1 -10 -4 -18
-8 -18 -3 0 -5 -11 -4 -25 2 -14 0 -25 -4 -25 -4 0 -8 -12 -9 -27 -1 -16 -5
-44 -8 -63 -3 -19 -7 -58 -8 -86 -2 -28 -5 -55 -8 -60 -10 -17 -6 -328 4 -348
8 -14 7 -17 -3 -11 -8 6 -10 4 -4 -5 4 -7 9 -29 11 -49 2 -20 6 -54 9 -76 4
-22 7 -51 9 -65 1 -14 6 -31 10 -38 4 -7 5 -16 1 -21 -3 -5 0 -13 6 -16 5 -4
8 -13 5 -20 -2 -7 -2 -16 2 -19 3 -4 7 -17 9 -29 2 -12 8 -34 14 -48 5 -14 11
-35 12 -47 1 -12 5 -22 9 -22 4 0 8 -10 8 -23 0 -13 9 -41 19 -63 11 -21 17
-42 14 -46 -2 -5 1 -8 7 -8 6 0 8 -4 5 -10 -3 -5 -2 -10 3 -10 5 0 9 -6 9 -13
0 -16 85 -191 95 -195 4 -2 8 -12 8 -23 0 -10 4 -19 8 -19 5 0 14 -12 21 -27
14 -31 124 -195 149 -223 33 -37 42 -49 42 -61 0 -7 3 -10 6 -6 7 7 34 -17 34
-29 0 -4 31 -38 70 -76 38 -38 70 -73 70 -78 0 -6 4 -10 9 -10 4 0 23 -13 42
-29 18 -16 37 -27 41 -25 5 3 7 1 6 -4 -3 -9 134 -122 148 -122 3 0 12 -6 19
-13 34 -30 43 -35 49 -30 3 4 6 1 6 -5 0 -7 7 -12 15 -12 8 0 15 -4 15 -9 0
-5 11 -12 25 -15 14 -4 25 -11 25 -16 0 -6 9 -10 20 -10 11 0 20 -5 20 -11 0
-5 5 -7 10 -4 6 3 10 2 10 -4 0 -9 25 -21 43 -20 4 0 19 -9 34 -21 14 -11 30
-20 35 -20 5 0 34 -11 64 -25 30 -14 58 -25 63 -25 4 0 22 -7 40 -16 18 -9 43
-17 57 -18 13 0 24 -5 24 -10 0 -4 6 -6 14 -3 7 3 18 1 23 -4 5 -5 21 -10 36
-11 15 -1 27 -6 27 -11 0 -5 9 -7 20 -4 11 3 20 1 20 -3 0 -5 9 -7 20 -5 11 2
20 1 20 -3 0 -4 12 -9 28 -11 54 -6 77 -9 77 -11 0 -2 56 -10 97 -12 21 -2 38
-7 38 -13 0 -6 4 -4 9 4 6 9 10 10 16 2 5 -9 11 -9 23 1 9 7 13 8 9 2 -5 -9
35 -12 148 -12 88 0 157 4 161 9 3 6 11 5 20 -2 11 -9 14 -9 14 0 0 8 5 9 19
1 12 -6 22 -6 25 -1 3 5 20 8 37 7 16 -1 32 1 35 6 8 13 26 9 18 -4 -4 -7 1
-6 12 3 10 9 31 15 47 14 15 -1 27 2 27 7 0 5 4 7 8 4 5 -3 31 1 58 8 27 7 57
12 67 10 9 -1 15 2 11 7 -3 5 8 9 23 9 16 0 34 5 41 12 7 7 12 9 12 5 0 -4 12
-1 28 6 15 8 33 12 40 10 6 -3 12 0 12 6 0 6 3 10 8 10 4 -1 10 0 15 1 4 1 10
3 15 4 35 8 80 32 75 39 -3 6 -1 7 5 3 12 -7 63 13 74 29 4 5 8 7 8 2 0 -4 29
8 65 28 36 19 65 31 65 27 0 -4 5 1 11 11 5 9 17 17 24 17 8 0 15 5 15 11 0 5
5 7 10 4 6 -3 10 -1 10 5 0 6 5 8 10 5 6 -3 10 -2 10 3 0 5 12 15 28 23 15 8
32 19 39 24 7 6 19 16 28 23 8 7 15 10 15 7 0 -4 6 0 13 7 8 7 31 27 52 43 21
17 47 38 57 47 10 10 18 16 18 13 0 -3 8 3 18 13 11 9 17 21 14 26 -3 5 -1 6
5 3 9 -6 189 169 191 186 0 5 14 21 29 36 16 15 40 43 53 62 14 19 30 41 37
49 7 8 13 18 13 23 0 4 12 20 26 36 14 16 26 33 26 38 0 4 6 16 15 25 19 21
54 84 99 178 20 41 39 77 43 80 3 3 7 12 9 20 2 8 10 28 18 44 7 16 12 32 9
36 -3 4 2 13 10 20 7 6 11 18 8 26 -3 8 -1 14 4 14 5 0 10 7 11 15 1 8 3 22 4
30 1 8 5 15 10 15 4 0 7 3 7 8 -1 4 0 9 1 12 1 3 3 12 5 20 2 8 6 29 10 45 4
17 9 45 12 62 3 18 8 31 12 29 3 -2 7 10 9 27 1 18 4 41 6 52 3 11 5 33 5 48
1 16 4 26 9 24 4 -3 7 17 6 44 0 28 4 53 9 56 5 3 3 10 -4 15 -11 8 -11 11 -1
15 10 4 10 8 0 21 -8 9 -8 13 -1 9 16 -10 18 259 2 279 -7 9 -8 14 -1 14 10 0
11 16 2 35 -3 6 -5 36 -5 67 0 32 -4 58 -9 58 -5 0 -3 6 3 14 9 11 9 16 0 22
-8 5 -9 3 -4 -6 5 -8 4 -11 -2 -7 -5 3 -8 21 -7 39 1 18 -1 37 -5 43 -4 5 -7
26 -7 47 1 20 -2 34 -6 31 -5 -2 -9 3 -9 11 -1 9 -2 24 -3 34 -1 9 -7 27 -14
38 -6 12 -9 24 -6 27 3 3 2 12 -2 19 -5 7 -9 19 -10 26 -2 8 -6 21 -10 30 -4
9 -9 28 -11 42 -2 14 -8 27 -14 28 -5 2 -9 12 -9 23 0 17 -17 56 -30 69 -3 3
-7 14 -8 25 -2 11 -8 22 -13 23 -5 2 -7 8 -3 13 3 5 0 9 -7 9 -7 0 -10 3 -6 6
6 7 -69 160 -90 182 -6 6 -15 21 -18 32 -3 11 -11 20 -16 20 -6 0 -7 5 -4 10
3 6 2 10 -4 10 -5 0 -13 10 -17 23 -4 12 -15 28 -25 35 -11 7 -19 18 -19 23 0
12 -69 100 -87 112 -7 4 -13 12 -13 17 0 5 -20 29 -44 54 -24 25 -42 47 -40
49 2 2 -7 10 -21 17 -13 7 -27 22 -31 32 -3 11 -8 17 -11 15 -2 -3 -23 14 -46
36 -23 23 -60 56 -81 72 -22 17 -50 40 -64 53 -14 12 -31 22 -38 22 -8 0 -14
4 -14 8 0 10 -125 92 -140 92 -5 0 -10 7 -10 16 0 8 -5 12 -11 8 -6 -3 -14 -3
-18 2 -11 16 -148 84 -155 77 -3 -3 -6 -2 -6 3 0 10 -69 40 -82 36 -5 -1 -8 3
-8 9 0 5 -4 7 -10 4 -5 -3 -10 -1 -10 4 0 6 -11 11 -25 11 -14 0 -25 4 -25 10
0 5 -7 7 -15 4 -8 -4 -15 -2 -15 4 0 9 -18 15 -75 24 -11 2 -22 6 -25 10 -6 7
-39 15 -100 23 -19 3 -37 9 -40 13 -3 4 -14 7 -25 6 -11 0 -24 2 -30 5 -5 3
-23 7 -40 7 -16 1 -41 6 -55 11 -14 5 -38 8 -55 8 -16 -1 -36 2 -42 8 -9 6
-13 5 -13 -4 0 -9 -3 -10 -8 -3 -10 16 -382 17 -382 1 0 -7 -4 -6 -10 3 -5 8
-10 10 -10 5z"/>
</g>
</svg>
